<svg xmlns="http://www.w3.org/2000/svg" width="129.271" height="137.968" viewBox="0 0 129.271 137.968">
  <path id="Forma_1" data-name="Forma 1" d="M70.541,87.847a5.389,5.389,0,1,1-5.385,5.389,5.389,5.389,0,0,1,5.385-5.389ZM88.58,127.189H21.539A10.786,10.786,0,0,1,10.77,116.41V72.217A10.786,10.786,0,0,1,21.539,61.438H99.08a10.94,10.94,0,0,1,2.974.331,5.389,5.389,0,1,0,2.965-10.362,21.38,21.38,0,0,0-5.941-.747h-6.47V31.654C92.609,14.2,78.116,0,60.3,0S27.991,14.2,27.991,31.654V50.66H21.539A21.573,21.573,0,0,0,0,72.218v44.193a21.573,21.573,0,0,0,21.539,21.557H88.58a5.389,5.389,0,1,0,0-10.779ZM38.761,31.654c0-11.51,9.663-20.873,21.539-20.873s21.539,9.364,21.539,20.873V50.66H38.761ZM50.348,87.847a5.389,5.389,0,1,1-5.385,5.389,5.389,5.389,0,0,1,5.385-5.389Zm78.917,1.4a19.123,19.123,0,1,0-38.244.22,5.385,5.385,0,1,0,10.769,0,8.353,8.353,0,1,1,16.707,0c0,.049,0,.1,0,.146a8.358,8.358,0,0,1-5.078,7.553,14.334,14.334,0,0,0-8.661,13.231v4.661a5.385,5.385,0,0,0,10.769,0V110.4a3.571,3.571,0,0,1,2.12-3.318,19.122,19.122,0,0,0,11.624-17.614c0-.073,0-.146-.006-.219Zm-19.146,37.938a5.389,5.389,0,1,1-5.385,5.389,5.389,5.389,0,0,1,5.385-5.389ZM30.155,87.847a5.389,5.389,0,1,1-5.385,5.389A5.389,5.389,0,0,1,30.155,87.847Z" fill="#7d83ff" fill-rule="evenodd"/>
</svg>
