<svg xmlns="http://www.w3.org/2000/svg" width="12.804" height="16.5" viewBox="0 0 12.804 16.5">
  <g id="_" data-name="î¡" fill="#fff" stroke-miterlimit="10">
    <path d="M 12.30399990081787 15.74104499816895 L 6.599339962005615 13.29059028625488 L 6.401999950408936 13.20582008361816 L 6.204659938812256 13.29059028625488 L 0.4999999403953552 15.74104499816895 L 0.4999999403953552 1.848000049591064 C 0.4999999403953552 1.480029940605164 0.6271399259567261 1.168720006942749 0.8886999487876892 0.8962600231170654 C 1.144670009613037 0.6296200156211853 1.444069981575012 0.5 1.803999900817871 0.5 L 11 0.5 C 11.35993003845215 0.5 11.65933036804199 0.6296200156211853 11.9153003692627 0.8962600231170654 C 12.17685985565186 1.168720006942749 12.30399990081787 1.480029940605164 12.30399990081787 1.848000049591064 L 12.30399990081787 15.74104499816895 Z" stroke="none"/>
    <path d="M 11.80399990081787 14.98209095001221 L 11.80399990081787 1.848000049591064 C 11.80399990081787 1.608929991722107 11.72708988189697 1.422189950942993 11.55461025238037 1.242529988288879 C 11.3914098739624 1.072530031204224 11.22554969787598 1 11 1 L 1.803999900817871 1 C 1.578449964523315 1 1.412589907646179 1.072530031204224 1.249390006065369 1.242529988288879 C 1.076909899711609 1.422189950942993 0.9999999403953552 1.608929991722107 0.9999999403953552 1.848000049591064 L 0.9999999403953552 14.98209095001221 L 6.007319927215576 12.83117961883545 L 6.401999950408936 12.66164970397949 L 6.796679973602295 12.83117961883545 L 11.80399990081787 14.98209095001221 M 12.80399990081787 16.5 L 6.401999950408936 13.75 L -4.959106547630654e-08 16.5 L -4.959106547630654e-08 1.848000049591064 C -4.959106547630654e-08 1.349329948425293 0.1759999543428421 0.916670024394989 0.5279999375343323 0.550000011920929 C 0.8799999356269836 0.1833299994468689 1.305329918861389 0 1.803999900817871 0 L 11 0 C 11.49866962432861 0 11.92399978637695 0.1833299994468689 12.27600002288818 0.550000011920929 C 12.62800025939941 0.916670024394989 12.80399990081787 1.349329948425293 12.80399990081787 1.848000049591064 L 12.80399990081787 16.5 Z" stroke="none" fill="#5d5d5d"/>
  </g>
</svg>
