<svg xmlns="http://www.w3.org/2000/svg" width="18" height="16" viewBox="0 0 18 16">
  <path id="_" data-name="î½" d="M3.322,16a.486.486,0,0,1-.36-.152.5.5,0,0,1-.149-.366.622.622,0,0,1,.009-.107.317.317,0,0,1,.026-.089q.246-.447.572-1.205a3.846,3.846,0,0,0,.325-1.527.033.033,0,0,1,.009-.026.041.041,0,0,0,.009-.027,8.22,8.22,0,0,1-1.6-1.072A6.373,6.373,0,0,1,.985,10.1a6.112,6.112,0,0,1-.73-1.535A5.662,5.662,0,0,1,0,6.857,5.325,5.325,0,0,1,.7,4.188,7.24,7.24,0,0,1,2.628,2.009,9.5,9.5,0,0,1,5.494.535,11.239,11.239,0,0,1,9,0a11.239,11.239,0,0,1,3.506.535,9.5,9.5,0,0,1,2.866,1.473A7.24,7.24,0,0,1,17.3,4.188a5.42,5.42,0,0,1,0,5.339,7.229,7.229,0,0,1-1.925,2.179,9.5,9.5,0,0,1-2.866,1.473A11.239,11.239,0,0,1,9,13.714H8.526c-.165,0-.319,0-.466-.009a3.883,3.883,0,0,1-.518-.062,4.327,4.327,0,0,1-.553.526,9.917,9.917,0,0,1-.976.715,10.49,10.49,0,0,1-1.222.679A5.457,5.457,0,0,1,3.463,16Z" fill="#5d5d5d"/>
</svg>
