<svg xmlns="http://www.w3.org/2000/svg" width="24" height="19.421" viewBox="0 0 24 19.421">
  <path id="_copy" data-name="îš copy" d="M1.929,19.421a2.1,2.1,0,0,1-1.366-.455A1.378,1.378,0,0,1,0,17.861V9.884A1.376,1.376,0,0,1,.563,8.779a2.1,2.1,0,0,1,1.366-.455H4.955l.4-.065a3.691,3.691,0,0,0,.95-.325,2.48,2.48,0,0,0,.87-.651q.483-.628,1.42-1.95c.071-.1.174-.246.308-.434s.228-.325.282-.412a.366.366,0,0,0,.053-.194c-.018-.3-.036-.751-.053-1.345q0-.281-.027-.78A1.841,1.841,0,0,1,10.5.368,4.433,4.433,0,0,1,12.268,0a4.592,4.592,0,0,1,1.58.282A2.389,2.389,0,0,1,15.295,1.5q.081.173.241.52.456,1,.644,1.43a4.038,4.038,0,0,1,.133,2.579c-.053.2-.116.5-.187.889h4.661a5.135,5.135,0,0,1,1.339.173,2.474,2.474,0,0,1,1.768,1.669.207.207,0,0,0,.054.086v.066L24,9.017v.954l-.107.108a2.849,2.849,0,0,1-.535.976,1.7,1.7,0,0,1,.134.65,2.431,2.431,0,0,1-.616,1.648,1.841,1.841,0,0,1,.134.52,2.675,2.675,0,0,1-.616,1.821,2.578,2.578,0,0,1,.08.976,2.659,2.659,0,0,1-.763,1.582,3.647,3.647,0,0,1-1.728.953,7.466,7.466,0,0,1-1.929.217Z" fill="#5d5d5d"/>
</svg>
